<?xml version="1.0" encoding="UTF-8" standalone="no"?>
<!-- Generator: Adobe Illustrator 25.2.3, SVG Export Plug-In . SVG Version: 6.00 Build 0)  -->

<svg
   version="1.1"
   id="Livello_1"
   x="0px"
   y="0px"
   viewBox="0 0 365.00001 508.79999"
   xml:space="preserve"
   sodipodi:docname="card-borders.svg"
   width="365"
   height="508.79999"
   inkscape:version="1.1.2 (0a00cf5339, 2022-02-04)"
   xmlns:inkscape="http://www.inkscape.org/namespaces/inkscape"
   xmlns:sodipodi="http://sodipodi.sourceforge.net/DTD/sodipodi-0.dtd"
   xmlns:xlink="http://www.w3.org/1999/xlink"
   xmlns="http://www.w3.org/2000/svg"
   xmlns:svg="http://www.w3.org/2000/svg"><defs
   id="defs27" /><sodipodi:namedview
   id="namedview25"
   pagecolor="#ffffff"
   bordercolor="#999999"
   borderopacity="1"
   inkscape:pageshadow="0"
   inkscape:pageopacity="0"
   inkscape:pagecheckerboard="0"
   showgrid="false"
   inkscape:zoom="1.5116883"
   inkscape:cx="243.10567"
   inkscape:cy="280.81186"
   inkscape:window-width="2486"
   inkscape:window-height="1369"
   inkscape:window-x="74"
   inkscape:window-y="34"
   inkscape:window-maximized="1"
   inkscape:current-layer="Livello_1" />
<style
   type="text/css"
   id="style2">
	.st0{fill:#EDE3CC;}
	.st1{clip-path:url(#SVGID_2_);}
	.st2{fill:none;stroke:#ADADAD;stroke-miterlimit:10;}
	.st3{fill:none;stroke:#ADADAD;stroke-width:3;stroke-miterlimit:10;}
</style>
<g
   id="Livello_2_1_"
   transform="translate(-24.6,-8)">
	<g
   id="Livello_1-2">
		<polyline
   class="st0"
   points="386.7,23.7 374,11 40.7,11 27.6,24.1 27.6,500.8 40.7,513.9 373.6,513.9 386.7,500.8   "
   id="polyline4" />
		<g
   id="g20">
			<g
   id="g18">
				<defs
   id="defs7">
					<rect
   id="SVGID_1_"
   x="24.6"
   y="8"
   width="365.10001"
   height="508.89999" />
				</defs>
				<clipPath
   id="SVGID_2_">
					<use
   xlink:href="#SVGID_1_"
   style="overflow:visible"
   id="use9"
   x="0"
   y="0"
   width="100%"
   height="100%" />
				</clipPath>
				<g
   class="st1"
   clip-path="url(#SVGID_2_)"
   id="g16">
					<path
   class="st2"
   d="M 374,8.5 H 39.7 L 39,9.2 25.8,22.4 25.1,23.1 v 478.7 l 0.7,0.7 13.1,13.1 0.7,0.7 h 335 l 0.7,-0.7 8.8,-8.8 1.5,-1.5 3.5,-3.1 V 22.6 L 388.4,21.9 375.8,9.2 375.1,8.5 c 0,0 -1.1,0 -1.1,0 z"
   id="path12" />
					<path
   class="st3"
   d="M 373.4,12.5 H 41.3 L 29.1,24.7 v 475.4 l 12.2,12.2 h 331.6 l 12.2,-12.2 V 24.3 Z"
   id="path14" />
				</g>
			</g>
		</g>
	</g>
</g>
</svg>
